<svg width="18" height="14" viewBox="0 0 18 14" fill="none" xmlns="http://www.w3.org/2000/svg">
<path d="M17.125 0.125H0.875C0.529297 0.125 0.25 0.404297 0.25 0.75V13.25C0.25 13.5957 0.529297 13.875 0.875 13.875H17.125C17.4707 13.875 17.75 13.5957 17.75 13.25V0.75C17.75 0.404297 17.4707 0.125 17.125 0.125ZM16.3438 12.4688H1.65625V11.6895L4.36133 8.48047L7.29297 11.957L11.8535 6.55078L16.3438 11.875V12.4688ZM16.3438 9.93359L11.9727 4.75C11.9102 4.67578 11.7969 4.67578 11.7344 4.75L7.29297 10.0156L4.48047 6.68164C4.41797 6.60742 4.30469 6.60742 4.24219 6.68164L1.65625 9.74805V1.53125H16.3438V9.93359ZM4.9375 5.90625C5.16321 5.90625 5.38671 5.86179 5.59524 5.77542C5.80377 5.68904 5.99324 5.56244 6.15284 5.40284C6.31244 5.24324 6.43904 5.05377 6.52542 4.84524C6.61179 4.63671 6.65625 4.41321 6.65625 4.1875C6.65625 3.96179 6.61179 3.73829 6.52542 3.52976C6.43904 3.32123 6.31244 3.13176 6.15284 2.97216C5.99324 2.81256 5.80377 2.68596 5.59524 2.59958C5.38671 2.51321 5.16321 2.46875 4.9375 2.46875C4.48166 2.46875 4.04449 2.64983 3.72216 2.97216C3.39983 3.29449 3.21875 3.73166 3.21875 4.1875C3.21875 4.64334 3.39983 5.08051 3.72216 5.40284C4.04449 5.72517 4.48166 5.90625 4.9375 5.90625ZM4.9375 3.64062C5.24023 3.64062 5.48438 3.88477 5.48438 4.1875C5.48438 4.49023 5.24023 4.73438 4.9375 4.73438C4.63477 4.73438 4.39062 4.49023 4.39062 4.1875C4.39062 3.88477 4.63477 3.64062 4.9375 3.64062Z" fill="#2D4C68"/>
</svg>
