<svg width="16" height="16" viewBox="0 0 16 16" fill="none" xmlns="http://www.w3.org/2000/svg">
<path d="M9.21094 10.996C9.18157 10.9669 9.14191 10.9506 9.10059 10.9506C9.05926 10.9506 9.0196 10.9669 8.99024 10.996L6.7207 13.2655C5.66992 14.3163 3.89648 14.4276 2.73633 13.2655C1.57422 12.1034 1.68555 10.3319 2.73633 9.28113L5.00586 7.0116C5.06641 6.95105 5.06641 6.85144 5.00586 6.79089L4.22852 6.01355C4.19915 5.98447 4.15949 5.96816 4.11816 5.96816C4.07684 5.96816 4.03718 5.98447 4.00781 6.01355L1.73828 8.28308C0.0859375 9.93542 0.0859375 12.6093 1.73828 14.2596C3.39062 15.91 6.06445 15.912 7.71484 14.2596L9.98438 11.9901C10.0449 11.9296 10.0449 11.83 9.98438 11.7694L9.21094 10.996ZM14.2617 1.73816C12.6094 0.0858154 9.93555 0.0858154 8.28516 1.73816L6.01367 4.00769C5.98459 4.03706 5.96828 4.07671 5.96828 4.11804C5.96828 4.15937 5.98459 4.19903 6.01367 4.22839L6.78906 5.00378C6.84961 5.06433 6.94922 5.06433 7.00977 5.00378L9.2793 2.73425C10.3301 1.68347 12.1035 1.57214 13.2637 2.73425C14.4258 3.89636 14.3145 5.66785 13.2637 6.71863L10.9941 8.98816C10.9651 9.01753 10.9487 9.05718 10.9487 9.09851C10.9487 9.13984 10.9651 9.1795 10.9941 9.20886L11.7715 9.98621C11.832 10.0468 11.9316 10.0468 11.9922 9.98621L14.2617 7.71668C15.9121 6.06433 15.9121 3.3905 14.2617 1.73816ZM9.91602 5.27136C9.88665 5.24228 9.84699 5.22597 9.80567 5.22597C9.76434 5.22597 9.72468 5.24228 9.69531 5.27136L5.27148 9.69324C5.24241 9.7226 5.22609 9.76226 5.22609 9.80359C5.22609 9.84492 5.24241 9.88457 5.27148 9.91394L6.04492 10.6874C6.10547 10.7479 6.20508 10.7479 6.26563 10.6874L10.6875 6.2655C10.748 6.20496 10.748 6.10535 10.6875 6.0448L9.91602 5.27136Z" fill="#2D4C68"/>
</svg>
