<svg width="20" height="20" viewBox="0 0 20 20" fill="none" xmlns="http://www.w3.org/2000/svg">
<path fill-rule="evenodd" clip-rule="evenodd" d="M1.25 4C1.25 3.58579 1.58579 3.25 2 3.25H7.97014C8.37259 3.25 8.7033 3.56764 8.71953 3.96976C8.78284 5.53864 8.7643 7.98828 8.50056 10.2553C8.36882 11.3878 8.17329 12.4983 7.88651 13.4396C7.60818 14.3533 7.20972 15.2265 6.59659 15.7596C5.87482 16.3872 4.89177 16.6633 4.06782 16.7319C3.64724 16.7669 3.23314 16.7512 2.87124 16.6838C2.53996 16.6221 2.13429 16.4959 1.84867 16.2165C1.68607 16.0574 1.60444 15.8331 1.62675 15.6068C1.64906 15.3804 1.77291 15.1764 1.96344 15.0521C2.4848 14.7121 3.53633 13.6476 3.8006 12.0502H2C1.58579 12.0502 1.25 11.7144 1.25 11.3002V4ZM2.75 4.75V10.5502H4.61193C5.02615 10.5502 5.36194 10.886 5.36194 11.3002C5.36194 13.005 4.66875 14.3433 3.93581 15.2377C3.93833 15.2375 3.94085 15.2373 3.94337 15.2371C4.58086 15.184 5.21471 14.9734 5.61234 14.6277C5.89474 14.3821 6.1928 13.8521 6.45162 13.0025C6.702 12.1806 6.88427 11.168 7.01061 10.082C7.22592 8.23123 7.27124 6.23594 7.24202 4.75H2.75Z" fill="#2D4C68"/>
<path fill-rule="evenodd" clip-rule="evenodd" d="M10.25 4C10.25 3.58579 10.5858 3.25 11 3.25H16.9701C17.3726 3.25 17.7033 3.56764 17.7195 3.96976C17.7828 5.53864 17.7643 7.98828 17.5006 10.2553C17.3688 11.3878 17.1733 12.4983 16.8865 13.4396C16.6082 14.3533 16.2097 15.2265 15.5966 15.7596C14.8748 16.3872 13.8918 16.6633 13.0678 16.7319C12.6472 16.7669 12.2331 16.7512 11.8712 16.6838C11.54 16.6221 11.1343 16.4959 10.8487 16.2165C10.6861 16.0574 10.6044 15.8331 10.6268 15.6068C10.6491 15.3804 10.7729 15.1764 10.9634 15.0521C11.4848 14.7121 12.5363 13.6476 12.8006 12.0502H11C10.5858 12.0502 10.25 11.7144 10.25 11.3002V4ZM11.75 4.75V10.5502H13.6119C14.0261 10.5502 14.3619 10.886 14.3619 11.3002C14.3619 13.005 13.6687 14.3433 12.9358 15.2377C12.9383 15.2375 12.9408 15.2373 12.9434 15.2371C13.5809 15.184 14.2147 14.9734 14.6123 14.6277C14.8947 14.3821 15.1928 13.8521 15.4516 13.0025C15.702 12.1806 15.8843 11.168 16.0106 10.082C16.2259 8.23123 16.2712 6.23594 16.242 4.75H11.75Z" fill="#2D4C68"/>
</svg>
